# xmcd
# 
# Track frame offsets:
#     150
#     16928
#     33323
#     50965
#     66172
#     80155
#     97027
#     114204
#     129389
#     146303
#     162479
# 
# Disc length: 2401
# 
# Revision: 2
# Processed by: cddbd v1.5.2PL0 Copyright (c) Steve Scherf et al.
# Submitted via: fre:ac v1.0.17
# 
DISCID=94095f0b
DTITLE=Big and Rich - Gravity
DYEAR=2014
DGENRE=Country
TTITLE0=Look At You
TTITLE1=Lovin' Lately
TTITLE2=Gravity
TTITLE3=Brand New Buzz
TTITLE4=Rollin' Along
TTITLE5=Run Away With You
TTITLE6=Lose a Little Sleep
TTITLE7=Don't Wake Me Up
TTITLE8=That Kind of Town
TTITLE9=Thank God for Pain
TTITLE10=I Came to Git Down
EXTD=
EXTT0=
EXTT1=
EXTT2=
EXTT3=
EXTT4=
EXTT5=
EXTT6=
EXTT7=
EXTT8=
EXTT9=
EXTT10=
PLAYORDER=
